<svg width="106" height="23" viewBox="0 0 106 23" fill="none" xmlns="http://www.w3.org/2000/svg">
<path d="M105 8.4667H102.994L101.189 5.48004H98.5813L97.5784 9.96003L95.5726 1.00004L93.5667 11.4534H91.3603L90.3574 15.9333L88.3515 3.9867L83.5375 12.9467L82.334 8.4667H79.1247L75.9153 12.9467H74.5113L73.1072 15.9333L62.1179 11.4534L60.4704 1.00004L58.194 11.4534L54.6535 5.48004L51.7477 7.72032L49.5413 3.987L45.9308 11.4536H42.5209L40.7156 7.72032L37.5063 16.6803L36.3028 11.4536L34.6981 14.4403L33.6952 11.4536L30.4858 21.907H28.7651L27.3638 22.3334L26.6747 18.9203L24.4683 16.6803L22.0206 14.4396L20.339 18.9204L17.256 21.9073L11.3702 21.907L9.40827 18.9203L6.60551 21.907H5.20414L4.00877 18.9203L1 11.4536" stroke="#66C87B" stroke-linecap="round"/>
</svg>
