<svg width="40" height="40" viewBox="0 0 40 40" fill="none" xmlns="http://www.w3.org/2000/svg">
<rect x="0.384615" y="0.384615" width="39.2308" height="39.2308" rx="19.6154" stroke="#DADDDD" stroke-width="0.769231"/>
<path fill-rule="evenodd" clip-rule="evenodd" d="M20.0001 11.0416C18.2872 11.0416 16.6445 11.7221 15.4333 12.9332C14.2221 14.1444 13.5417 15.7871 13.5417 17.5V18.0866C13.5417 18.6674 13.3697 19.2351 13.0476 19.7183L12.0917 21.1541C10.9801 22.8208 11.8284 25.0858 13.7609 25.6125C14.3901 25.7841 15.0251 25.9291 15.6642 26.0483L15.6659 26.0525C16.3059 27.7625 18.0184 28.9583 20.0001 28.9583C21.9817 28.9583 23.6942 27.7625 24.3351 26.0525L24.3367 26.0483C24.9769 25.9292 25.6119 25.7838 26.2401 25.6125C28.1726 25.0858 29.0209 22.8208 27.9092 21.1541L26.9526 19.7183C26.6304 19.2351 26.4584 18.6674 26.4584 18.0866V17.5C26.4584 15.7871 25.778 14.1444 24.5668 12.9332C23.3556 11.7221 21.7129 11.0416 20.0001 11.0416ZM22.8134 26.2808C20.9442 26.5041 19.0551 26.5041 17.1859 26.2808C17.7784 27.1316 18.8092 27.7083 20.0001 27.7083C21.1909 27.7083 22.2209 27.1316 22.8134 26.2808ZM14.7917 17.5C14.7917 16.1186 15.3405 14.7939 16.3172 13.8171C17.294 12.8404 18.6187 12.2916 20.0001 12.2916C21.3814 12.2916 22.7062 12.8404 23.6829 13.8171C24.6597 14.7939 25.2084 16.1186 25.2084 17.5V18.0866C25.2084 18.9141 25.4534 19.7233 25.9126 20.4116L26.8692 21.8475C27.0175 22.0695 27.1108 22.3235 27.1415 22.5887C27.1722 22.8539 27.1393 23.1226 27.0457 23.3726C26.9521 23.6226 26.8004 23.8467 26.6031 24.0265C26.4057 24.2063 26.1685 24.3366 25.9109 24.4066C22.0407 25.4621 17.9585 25.4621 14.0884 24.4066C13.831 24.3364 13.594 24.206 13.3969 24.0263C13.1998 23.8465 13.0482 23.6225 12.9546 23.3727C12.8611 23.1228 12.8282 22.8544 12.8587 22.5893C12.8892 22.3243 12.9822 22.0703 13.1301 21.8483L14.0884 20.4116C14.5472 19.723 14.7919 18.9141 14.7917 18.0866V17.5Z" fill="#0D062D"/>
</svg>
