<svg width="80" height="92" viewBox="0 0 80 92" fill="none" xmlns="http://www.w3.org/2000/svg">
<rect x="17" width="46" height="92" rx="23" fill="white"/>
<rect x="25" y="8" width="30" height="30" rx="15" fill="#34CAA5"/>
<g clip-path="url(#clip0_1826_454)">
<path d="M40 27.2188C42.33 27.2188 44.2188 25.33 44.2188 23C44.2188 20.67 42.33 18.7812 40 18.7812C37.67 18.7812 35.7812 20.67 35.7812 23C35.7812 25.33 37.67 27.2188 40 27.2188Z" fill="white"/>
<path d="M40 17.0935C39.5336 17.0935 39.1562 16.7156 39.1562 16.2497V15.4062C39.1562 14.9403 39.5336 14.5625 40 14.5625C40.4664 14.5625 40.8438 14.9403 40.8438 15.4062V16.2497C40.8438 16.7156 40.4664 17.0935 40 17.0935Z" fill="white"/>
<path d="M44.7734 19.0706C44.5576 19.0706 44.3417 18.9882 44.1769 18.8234C43.8473 18.4939 43.8473 17.9596 44.1769 17.6301L44.7734 17.0337C45.103 16.7043 45.637 16.7042 45.9666 17.0338C46.2961 17.3633 46.2961 17.8975 45.9666 18.227L45.37 18.8235C45.2052 18.9882 44.9893 19.0706 44.7734 19.0706Z" fill="white"/>
<path d="M47.5937 23.8438H46.75C46.2836 23.8438 45.9062 23.4659 45.9062 23C45.9062 22.5341 46.2836 22.1562 46.75 22.1562H47.5937C48.0601 22.1562 48.4375 22.5341 48.4375 23C48.4375 23.4659 48.0601 23.8438 47.5937 23.8438Z" fill="white"/>
<path d="M45.37 29.2133C45.1541 29.2133 44.9382 29.131 44.7734 28.9662L44.1769 28.3698C43.8473 28.0403 43.8473 27.5061 44.1769 27.1766C44.5065 26.847 45.0404 26.8469 45.37 27.1765L45.9666 27.7729C46.2961 28.1024 46.2961 28.6366 45.9666 28.9661C45.8018 29.1309 45.5859 29.2133 45.37 29.2133Z" fill="white"/>
<path d="M40 31.4374C39.5336 31.4374 39.1562 31.0596 39.1562 30.5937V29.7502C39.1562 29.2843 39.5336 28.9065 40 28.9065C40.4664 28.9065 40.8438 29.2843 40.8438 29.7502V30.5937C40.8438 31.0596 40.4664 31.4374 40 31.4374Z" fill="white"/>
<path d="M34.6304 29.2134C34.4145 29.2134 34.1986 29.131 34.0338 28.9662C33.7042 28.6367 33.7042 28.1025 34.0338 27.773L34.6304 27.1765C34.96 26.8471 35.4939 26.847 35.8235 27.1766C36.1531 27.5061 36.1531 28.0403 35.8235 28.3698L35.2269 28.9663C35.0621 29.131 34.8463 29.2134 34.6304 29.2134Z" fill="white"/>
<path d="M33.25 23.8438H32.4062C31.9399 23.8438 31.5625 23.4659 31.5625 23C31.5625 22.5341 31.9399 22.1562 32.4062 22.1562H33.25C33.7164 22.1562 34.0938 22.5341 34.0938 23C34.0938 23.4659 33.7164 23.8438 33.25 23.8438Z" fill="white"/>
<path d="M35.2269 19.0706C35.011 19.0706 34.7952 18.9883 34.6304 18.8235L34.0338 18.2271C33.7042 17.8976 33.7042 17.3634 34.0338 17.0339C34.3634 16.7043 34.8973 16.7042 35.2269 17.0338L35.8235 17.6302C36.1531 17.9597 36.1531 18.4939 35.8235 18.8234C35.6587 18.9882 35.4428 19.0706 35.2269 19.0706Z" fill="white"/>
</g>
<path d="M40 58.6875C40.2486 58.6875 40.4871 58.5887 40.6629 58.4129C40.8387 58.2371 40.9375 57.9986 40.9375 57.75V56.8125C40.9375 56.5639 40.8387 56.3254 40.6629 56.1496C40.4871 55.9738 40.2486 55.875 40 55.875C39.7514 55.875 39.5129 55.9738 39.3371 56.1496C39.1613 56.3254 39.0625 56.5639 39.0625 56.8125V57.75C39.0625 57.9986 39.1613 58.2371 39.3371 58.4129C39.5129 58.5887 39.7514 58.6875 40 58.6875Z" fill="#B2ABAB"/>
<path d="M40 79.3125C39.7514 79.3125 39.5129 79.4113 39.3371 79.5871C39.1613 79.7629 39.0625 80.0014 39.0625 80.25V81.1875C39.0625 81.4361 39.1613 81.6746 39.3371 81.8504C39.5129 82.0262 39.7514 82.125 40 82.125C40.2486 82.125 40.4871 82.0262 40.6629 81.8504C40.8387 81.6746 40.9375 81.4361 40.9375 81.1875V80.25C40.9375 80.0014 40.8387 79.7629 40.6629 79.5871C40.4871 79.4113 40.2486 79.3125 40 79.3125Z" fill="#B2ABAB"/>
<path d="M52.1875 68.0625H51.25C51.0014 68.0625 50.7629 68.1613 50.5871 68.3371C50.4113 68.5129 50.3125 68.7514 50.3125 69C50.3125 69.2486 50.4113 69.4871 50.5871 69.6629C50.7629 69.8387 51.0014 69.9375 51.25 69.9375H52.1875C52.4361 69.9375 52.6746 69.8387 52.8504 69.6629C53.0262 69.4871 53.125 69.2486 53.125 69C53.125 68.7514 53.0262 68.5129 52.8504 68.3371C52.6746 68.1613 52.4361 68.0625 52.1875 68.0625Z" fill="#B2ABAB"/>
<path d="M28.75 68.0625H27.8125C27.5639 68.0625 27.3254 68.1613 27.1496 68.3371C26.9738 68.5129 26.875 68.7514 26.875 69C26.875 69.2486 26.9738 69.4871 27.1496 69.6629C27.3254 69.8387 27.5639 69.9375 27.8125 69.9375H28.75C28.9986 69.9375 29.2371 69.8387 29.4129 69.6629C29.5887 69.4871 29.6875 69.2486 29.6875 69C29.6875 68.7514 29.5887 68.5129 29.4129 68.3371C29.2371 68.1613 28.9986 68.0625 28.75 68.0625Z" fill="#B2ABAB"/>
<path d="M47.9549 59.7188L47.2921 60.3816C47.2025 60.4681 47.1311 60.5716 47.082 60.686C47.0328 60.8003 47.007 60.9234 47.0059 61.0478C47.0048 61.1723 47.0285 61.2958 47.0757 61.411C47.1228 61.5262 47.1924 61.6309 47.2804 61.7189C47.3685 61.8069 47.4731 61.8765 47.5884 61.9237C47.7036 61.9708 47.827 61.9945 47.9515 61.9934C48.076 61.9924 48.199 61.9665 48.3134 61.9174C48.4278 61.8682 48.5312 61.7968 48.6177 61.7073L49.2814 61.0454C49.3685 60.9583 49.4376 60.8549 49.4848 60.7411C49.5319 60.6273 49.5562 60.5053 49.5562 60.3821C49.5562 60.2589 49.5319 60.137 49.4848 60.0231C49.4376 59.9093 49.3685 59.8059 49.2814 59.7188C49.1943 59.6317 49.0909 59.5626 48.9771 59.5155C48.8633 59.4684 48.7413 59.4441 48.6182 59.4441C48.495 59.4441 48.373 59.4684 48.2592 59.5155C48.1454 59.5626 48.042 59.6317 47.9549 59.7188Z" fill="#B2ABAB"/>
<path d="M31.3818 76.292L30.7181 76.9548C30.631 77.0419 30.5619 77.1453 30.5148 77.2591C30.4676 77.3729 30.4434 77.4949 30.4434 77.6181C30.4434 77.7413 30.4676 77.8632 30.5148 77.977C30.5619 78.0909 30.631 78.1943 30.7181 78.2814C30.894 78.4573 31.1326 78.5561 31.3814 78.5561C31.5046 78.5561 31.6265 78.5318 31.7403 78.4847C31.8542 78.4376 31.9576 78.3685 32.0447 78.2814L32.7075 77.6185C32.7946 77.5315 32.8637 77.4282 32.9108 77.3144C32.958 77.2007 32.9823 77.0787 32.9824 76.9556C32.9824 76.8325 32.9582 76.7105 32.9111 76.5967C32.864 76.483 32.795 76.3796 32.7079 76.2925C32.6209 76.2054 32.5176 76.1362 32.4038 76.0891C32.2901 76.0419 32.1681 76.0176 32.045 76.0176C31.7963 76.0175 31.5578 76.1162 31.3818 76.292Z" fill="#B2ABAB"/>
<path d="M48.6171 76.292C48.4403 76.1212 48.2035 76.0267 47.9577 76.0288C47.7119 76.031 47.4767 76.1296 47.3029 76.3034C47.1291 76.4772 47.0305 76.7124 47.0284 76.9582C47.0262 77.204 47.1207 77.4408 47.2915 77.6176L47.9543 78.2814C48.1302 78.4573 48.3688 78.5561 48.6176 78.5561C48.8664 78.5561 49.1049 78.4573 49.2809 78.2814C49.4568 78.1054 49.5556 77.8668 49.5556 77.6181C49.5556 77.3693 49.4568 77.1307 49.2809 76.9548L48.6171 76.292Z" fill="#B2ABAB"/>
<path d="M31.3818 61.7082C31.5587 61.879 31.7955 61.9735 32.0413 61.9713C32.2871 61.9692 32.5222 61.8706 32.6961 61.6968C32.8699 61.523 32.9685 61.2878 32.9706 61.042C32.9727 60.7962 32.8782 60.5594 32.7075 60.3826L32.0447 59.7188C31.8687 59.5429 31.6302 59.4441 31.3814 59.4441C31.1326 59.4441 30.894 59.5429 30.7181 59.7188C30.5422 59.8947 30.4434 60.1333 30.4434 60.3821C30.4434 60.6309 30.5422 60.8695 30.7181 61.0454L31.3818 61.7082Z" fill="#B2ABAB"/>
<path d="M48.1567 70.3903C48.0357 70.271 47.8846 70.1867 47.7195 70.1466C47.5543 70.1065 47.3814 70.112 47.2192 70.1625C46.5901 70.3568 45.9351 70.4542 45.2767 70.4513C43.4926 70.4495 41.7821 69.7401 40.5205 68.4787C39.2589 67.2173 38.5493 65.5069 38.5473 63.7228C38.545 63.0647 38.643 62.41 38.8379 61.7813C38.8888 61.6189 38.8945 61.4457 38.8544 61.2802C38.8144 61.1148 38.73 60.9634 38.6104 60.8423C38.4909 60.7212 38.3406 60.6349 38.1757 60.5927C38.0108 60.5505 37.8375 60.554 37.6745 60.6028C36.2513 61.0332 34.964 61.8251 33.9381 62.9012C32.9122 63.9773 32.1827 65.301 31.8208 66.7431C31.4589 68.1851 31.4769 69.6964 31.8731 71.1294C32.2692 72.5624 33.0301 73.8683 34.0814 74.9197C35.1326 75.9711 36.4385 76.732 37.8715 77.1283C39.3045 77.5247 40.8157 77.5428 42.2578 77.181C43.6999 76.8192 45.0236 76.0898 46.0999 75.064C47.1761 74.0382 47.9681 72.751 48.3985 71.3278C48.4473 71.1644 48.4506 70.9907 48.408 70.8255C48.3654 70.6603 48.2785 70.5098 48.1567 70.3903Z" fill="#B2ABAB"/>
<defs>
<clipPath id="clip0_1826_454">
<rect width="16.875" height="16.875" fill="white" transform="translate(31.5625 14.5625)"/>
</clipPath>
</defs>
</svg>
