<svg width="30" height="76" viewBox="0 0 30 76" fill="none" xmlns="http://www.w3.org/2000/svg">
<rect width="30" height="30" rx="15" fill="#34CAA5"/>
<g clip-path="url(#clip0_1826_461)">
<path d="M15 19.2188C17.33 19.2188 19.2188 17.33 19.2188 15C19.2188 12.67 17.33 10.7812 15 10.7812C12.67 10.7812 10.7812 12.67 10.7812 15C10.7812 17.33 12.67 19.2188 15 19.2188Z" fill="white"/>
<path d="M15 9.09345C14.5336 9.09345 14.1562 8.71564 14.1562 8.2497V7.40625C14.1562 6.94031 14.5336 6.5625 15 6.5625C15.4664 6.5625 15.8438 6.94031 15.8438 7.40625V8.2497C15.8438 8.71564 15.4664 9.09345 15 9.09345Z" fill="white"/>
<path d="M19.7734 11.0706C19.5576 11.0706 19.3417 10.9882 19.1769 10.8234C18.8473 10.4939 18.8473 9.95964 19.1769 9.63015L19.7734 9.03369C20.103 8.7043 20.637 8.7042 20.9666 9.03379C21.2961 9.36328 21.2961 9.89751 20.9666 10.227L20.37 10.8235C20.2052 10.9882 19.9893 11.0706 19.7734 11.0706Z" fill="white"/>
<path d="M22.5937 15.8438H21.75C21.2836 15.8438 20.9062 15.4659 20.9062 15C20.9062 14.5341 21.2836 14.1562 21.75 14.1562H22.5937C23.0601 14.1562 23.4375 14.5341 23.4375 15C23.4375 15.4659 23.0601 15.8438 22.5937 15.8438Z" fill="white"/>
<path d="M20.37 21.2133C20.1541 21.2133 19.9382 21.131 19.7734 20.9662L19.1769 20.3698C18.8473 20.0403 18.8473 19.5061 19.1769 19.1766C19.5065 18.847 20.0404 18.8469 20.37 19.1765L20.9666 19.7729C21.2961 20.1024 21.2961 20.6366 20.9666 20.9661C20.8018 21.1309 20.5859 21.2133 20.37 21.2133Z" fill="white"/>
<path d="M15 23.4374C14.5336 23.4374 14.1562 23.0596 14.1562 22.5937V21.7502C14.1562 21.2843 14.5336 20.9065 15 20.9065C15.4664 20.9065 15.8438 21.2843 15.8438 21.7502V22.5937C15.8438 23.0596 15.4664 23.4374 15 23.4374Z" fill="white"/>
<path d="M9.63037 21.2134C9.41449 21.2134 9.19861 21.131 9.03381 20.9662C8.70422 20.6367 8.70422 20.1025 9.03381 19.773L9.63037 19.1765C9.95996 18.8471 10.4939 18.847 10.8235 19.1766C11.1531 19.5061 11.1531 20.0403 10.8235 20.3698L10.2269 20.9663C10.0621 21.131 9.84625 21.2134 9.63037 21.2134Z" fill="white"/>
<path d="M8.25 15.8438H7.40625C6.93988 15.8438 6.5625 15.4659 6.5625 15C6.5625 14.5341 6.93988 14.1562 7.40625 14.1562H8.25C8.71637 14.1562 9.09375 14.5341 9.09375 15C9.09375 15.4659 8.71637 15.8438 8.25 15.8438Z" fill="white"/>
<path d="M10.2269 11.0706C10.011 11.0706 9.79517 10.9883 9.63037 10.8235L9.03381 10.2271C8.70422 9.89759 8.70422 9.36335 9.03381 9.03386C9.3634 8.70427 9.89734 8.70417 10.2269 9.03376L10.8235 9.63022C11.1531 9.95971 11.1531 10.4939 10.8235 10.8234C10.6587 10.9882 10.4428 11.0706 10.2269 11.0706Z" fill="white"/>
</g>
<path d="M15 50.6875C15.2486 50.6875 15.4871 50.5887 15.6629 50.4129C15.8387 50.2371 15.9375 49.9986 15.9375 49.75V48.8125C15.9375 48.5639 15.8387 48.3254 15.6629 48.1496C15.4871 47.9738 15.2486 47.875 15 47.875C14.7514 47.875 14.5129 47.9738 14.3371 48.1496C14.1613 48.3254 14.0625 48.5639 14.0625 48.8125V49.75C14.0625 49.9986 14.1613 50.2371 14.3371 50.4129C14.5129 50.5887 14.7514 50.6875 15 50.6875Z" fill="#B2ABAB"/>
<path d="M15 71.3125C14.7514 71.3125 14.5129 71.4113 14.3371 71.5871C14.1613 71.7629 14.0625 72.0014 14.0625 72.25V73.1875C14.0625 73.4361 14.1613 73.6746 14.3371 73.8504C14.5129 74.0262 14.7514 74.125 15 74.125C15.2486 74.125 15.4871 74.0262 15.6629 73.8504C15.8387 73.6746 15.9375 73.4361 15.9375 73.1875V72.25C15.9375 72.0014 15.8387 71.7629 15.6629 71.5871C15.4871 71.4113 15.2486 71.3125 15 71.3125Z" fill="#B2ABAB"/>
<path d="M27.1875 60.0625H26.25C26.0014 60.0625 25.7629 60.1613 25.5871 60.3371C25.4113 60.5129 25.3125 60.7514 25.3125 61C25.3125 61.2486 25.4113 61.4871 25.5871 61.6629C25.7629 61.8387 26.0014 61.9375 26.25 61.9375H27.1875C27.4361 61.9375 27.6746 61.8387 27.8504 61.6629C28.0262 61.4871 28.125 61.2486 28.125 61C28.125 60.7514 28.0262 60.5129 27.8504 60.3371C27.6746 60.1613 27.4361 60.0625 27.1875 60.0625Z" fill="#B2ABAB"/>
<path d="M3.75 60.0625H2.8125C2.56386 60.0625 2.3254 60.1613 2.14959 60.3371C1.97377 60.5129 1.875 60.7514 1.875 61C1.875 61.2486 1.97377 61.4871 2.14959 61.6629C2.3254 61.8387 2.56386 61.9375 2.8125 61.9375H3.75C3.99864 61.9375 4.2371 61.8387 4.41291 61.6629C4.58873 61.4871 4.6875 61.2486 4.6875 61C4.6875 60.7514 4.58873 60.5129 4.41291 60.3371C4.2371 60.1613 3.99864 60.0625 3.75 60.0625Z" fill="#B2ABAB"/>
<path d="M22.9549 51.7188L22.2921 52.3816C22.2025 52.4681 22.1311 52.5716 22.082 52.686C22.0328 52.8003 22.007 52.9234 22.0059 53.0478C22.0048 53.1723 22.0285 53.2958 22.0757 53.411C22.1228 53.5262 22.1924 53.6309 22.2804 53.7189C22.3685 53.8069 22.4731 53.8765 22.5884 53.9237C22.7036 53.9708 22.827 53.9945 22.9515 53.9934C23.076 53.9924 23.199 53.9665 23.3134 53.9174C23.4278 53.8682 23.5312 53.7968 23.6177 53.7073L24.2814 53.0454C24.3685 52.9583 24.4376 52.8549 24.4848 52.7411C24.5319 52.6273 24.5562 52.5053 24.5562 52.3821C24.5562 52.2589 24.5319 52.137 24.4848 52.0231C24.4376 51.9093 24.3685 51.8059 24.2814 51.7188C24.1943 51.6317 24.0909 51.5626 23.9771 51.5155C23.8633 51.4684 23.7413 51.4441 23.6182 51.4441C23.495 51.4441 23.373 51.4684 23.2592 51.5155C23.1454 51.5626 23.042 51.6317 22.9549 51.7188Z" fill="#B2ABAB"/>
<path d="M6.38185 68.292L5.7181 68.9548C5.631 69.0419 5.5619 69.1453 5.51476 69.2591C5.46762 69.3729 5.44336 69.4949 5.44336 69.6181C5.44336 69.7413 5.46762 69.8632 5.51476 69.977C5.5619 70.0909 5.631 70.1943 5.7181 70.2814C5.89401 70.4573 6.1326 70.5561 6.38138 70.5561C6.50456 70.5561 6.62654 70.5318 6.74035 70.4847C6.85415 70.4376 6.95756 70.3685 7.04466 70.2814L7.70747 69.6185C7.79458 69.5315 7.86368 69.4282 7.91085 69.3144C7.95801 69.2007 7.98231 69.0787 7.98235 68.9556C7.9824 68.8325 7.95819 68.7105 7.9111 68.5967C7.86402 68.483 7.79499 68.3796 7.70794 68.2925C7.6209 68.2054 7.51756 68.1362 7.40381 68.0891C7.29006 68.0419 7.16813 68.0176 7.04499 68.0176C6.7963 68.0175 6.55776 68.1162 6.38185 68.292Z" fill="#B2ABAB"/>
<path d="M23.6171 68.292C23.4403 68.1212 23.2035 68.0267 22.9577 68.0288C22.7119 68.031 22.4767 68.1296 22.3029 68.3034C22.1291 68.4772 22.0305 68.7124 22.0284 68.9582C22.0262 69.204 22.1207 69.4408 22.2915 69.6176L22.9543 70.2814C23.1302 70.4573 23.3688 70.5561 23.6176 70.5561C23.8664 70.5561 24.1049 70.4573 24.2809 70.2814C24.4568 70.1054 24.5556 69.8668 24.5556 69.6181C24.5556 69.3693 24.4568 69.1307 24.2809 68.9548L23.6171 68.292Z" fill="#B2ABAB"/>
<path d="M6.38185 53.7082C6.55866 53.879 6.79548 53.9735 7.04129 53.9713C7.2871 53.9692 7.52223 53.8706 7.69605 53.6968C7.86987 53.523 7.96847 53.2878 7.97061 53.042C7.97274 52.7962 7.87825 52.5594 7.70747 52.3826L7.04466 51.7188C6.86875 51.5429 6.63016 51.4441 6.38138 51.4441C6.1326 51.4441 5.89401 51.5429 5.7181 51.7188C5.54219 51.8947 5.44336 52.1333 5.44336 52.3821C5.44336 52.6309 5.54219 52.8695 5.7181 53.0454L6.38185 53.7082Z" fill="#B2ABAB"/>
<path d="M23.1567 62.3903C23.0357 62.271 22.8846 62.1867 22.7195 62.1466C22.5543 62.1065 22.3814 62.112 22.2192 62.1625C21.5901 62.3568 20.9351 62.4542 20.2767 62.4513C18.4926 62.4495 16.7821 61.7401 15.5205 60.4787C14.2589 59.2173 13.5493 57.5069 13.5473 55.7228C13.545 55.0647 13.643 54.41 13.8379 53.7813C13.8888 53.6189 13.8945 53.4457 13.8544 53.2802C13.8144 53.1148 13.73 52.9634 13.6104 52.8423C13.4909 52.7212 13.3406 52.6349 13.1757 52.5927C13.0108 52.5505 12.8375 52.554 12.6745 52.6028C11.2513 53.0332 9.96401 53.8251 8.9381 54.9012C7.91218 55.9773 7.18269 57.301 6.82077 58.7431C6.45885 60.1851 6.47687 61.6964 6.87306 63.1294C7.26925 64.5624 8.03008 65.8683 9.08136 66.9197C10.1326 67.9711 11.4385 68.732 12.8715 69.1283C14.3045 69.5247 15.8157 69.5428 17.2578 69.181C18.6999 68.8192 20.0236 68.0898 21.0999 67.064C22.1761 66.0382 22.9681 64.751 23.3985 63.3278C23.4473 63.1644 23.4506 62.9907 23.408 62.8255C23.3654 62.6603 23.2785 62.5098 23.1567 62.3903Z" fill="#B2ABAB"/>
<defs>
<clipPath id="clip0_1826_461">
<rect width="16.875" height="16.875" fill="white" transform="translate(6.5625 6.5625)"/>
</clipPath>
</defs>
</svg>
