<?xml version="1.0" encoding="UTF-8"?>
<!DOCTYPE svg PUBLIC "-//W3C//DTD SVG 1.1//EN" "http://www.w3.org/Graphics/SVG/1.1/DTD/svg11.dtd">
<!-- Creator: CorelDRAW 2020 (64-Bit) -->
<svg xmlns="http://www.w3.org/2000/svg" xml:space="preserve" width="6.66666in" height="6.66666in" version="1.1" style="shape-rendering:geometricPrecision; text-rendering:geometricPrecision; image-rendering:optimizeQuality; fill-rule:evenodd; clip-rule:evenodd"
viewBox="0 0 6666.66 6666.66"
 xmlns:xlink="http://www.w3.org/1999/xlink"
 xmlns:xodm="http://www.corel.com/coreldraw/odm/2003">
 <defs>
  <style type="text/css">
   <![CDATA[
    .fil2 {fill:none;fill-rule:nonzero}
    .fil0 {fill:#34CAA5;fill-rule:nonzero}
    .fil3 {fill:#B2ABAB;fill-rule:nonzero}
    .fil1 {fill:white;fill-rule:nonzero}
   ]]>
  </style>
    <clipPath id="id0" style="clip-rule:nonzero">
     <path d="M3664.67 3781.76l175.78 0 0 -175.78 -175.78 0 0 175.78z"/>
    </clipPath>
 </defs>
 <g id="Layer_x0020_1">
  <metadata id="CorelCorpID_0Corel-Layer"/>
  <g id="_2652883782528">
   <path class="fil0" d="M3752.56 4004.3l0 0c86.28,0 156.25,69.97 156.25,156.25l0 0c0,86.28 -69.97,156.25 -156.25,156.25l0 -0c-86.28,0 -156.25,-69.97 -156.25,-156.25l-0 0c0,-86.28 69.98,-156.25 156.25,-156.25z"/>
   <g>
   </g>
   <g style="clip-path:url(#id0)">
    <g id="_2652883786896">
     <path class="fil1" d="M3752.56 3737.81c24.27,0 43.94,-19.67 43.94,-43.94 0,-24.27 -19.67,-43.94 -43.94,-43.94 -24.27,0 -43.94,19.67 -43.94,43.94 0,24.27 19.67,43.94 43.94,43.94z"/>
     <path class="fil1" d="M3752.56 3632.34c-4.86,0 -8.79,-3.94 -8.79,-8.79l0 -8.79c0,-4.85 3.93,-8.79 8.79,-8.79 4.86,0 8.79,3.93 8.79,8.79l0 8.79c0,4.85 -3.93,8.79 -8.79,8.79z"/>
     <path class="fil1" d="M3802.28 3652.94c-2.25,0 -4.5,-0.86 -6.22,-2.57 -3.43,-3.43 -3.43,-9 0,-12.43l6.22 -6.21c3.43,-3.43 9,-3.43 12.43,0 3.43,3.43 3.43,9 0,12.43l-6.22 6.22c-1.72,1.71 -3.96,2.57 -6.21,2.57z"/>
     <path class="fil1" d="M3831.66 3702.66l-8.79 0c-4.86,0 -8.79,-3.93 -8.79,-8.79 0,-4.85 3.93,-8.79 8.79,-8.79l8.79 0c4.86,0 8.79,3.94 8.79,8.79 0,4.85 -3.93,8.79 -8.79,8.79z"/>
     <path class="fil1" d="M3808.5 3758.59c-2.25,0 -4.5,-0.86 -6.21,-2.57l-6.22 -6.21c-3.43,-3.43 -3.43,-9 0,-12.43 3.43,-3.43 9,-3.43 12.43,0l6.22 6.21c3.43,3.43 3.43,9 0,12.43 -1.72,1.72 -3.97,2.57 -6.22,2.57z"/>
     <path class="fil1" d="M3752.56 3781.76c-4.86,0 -8.79,-3.94 -8.79,-8.79l0 -8.78c0,-4.85 3.93,-8.79 8.79,-8.79 4.86,0 8.79,3.94 8.79,8.79l0 8.78c0,4.85 -3.93,8.79 -8.79,8.79z"/>
     <path class="fil1" d="M3696.63 3758.59c-2.25,0 -4.5,-0.86 -6.22,-2.57 -3.43,-3.43 -3.43,-9 0,-12.43l6.22 -6.21c3.43,-3.43 9,-3.43 12.43,0 3.43,3.43 3.43,9 0,12.43l-6.22 6.22c-1.72,1.71 -3.96,2.57 -6.21,2.57z"/>
     <path class="fil1" d="M3682.25 3702.66l-8.79 0c-4.86,0 -8.79,-3.93 -8.79,-8.79 0,-4.85 3.93,-8.79 8.79,-8.79l8.79 0c4.86,0 8.79,3.94 8.79,8.79 0,4.85 -3.93,8.79 -8.79,8.79z"/>
     <path class="fil1" d="M3702.84 3652.94c-2.25,0 -4.5,-0.85 -6.21,-2.57l-6.22 -6.21c-3.43,-3.43 -3.43,-9 0,-12.43 3.43,-3.43 9,-3.43 12.43,0l6.22 6.21c3.43,3.43 3.43,9 0,12.43 -1.72,1.72 -3.97,2.57 -6.22,2.57z"/>
    </g>
   </g>
   <polygon class="fil2" points="3664.67,3781.76 3840.44,3781.76 3840.44,3605.98 3664.67,3605.98 "/>
   <path class="fil3" d="M3752.56 4065.61c2.59,0 5.07,-1.03 6.91,-2.86 1.83,-1.83 2.86,-4.31 2.86,-6.9l0 -9.77c0,-2.59 -1.03,-5.07 -2.86,-6.91 -1.83,-1.83 -4.31,-2.86 -6.91,-2.86 -2.59,0 -5.07,1.03 -6.91,2.86 -1.83,1.83 -2.86,4.31 -2.86,6.91l0 9.77c0,2.59 1.03,5.07 2.86,6.9 1.83,1.83 4.31,2.86 6.91,2.86z"/>
   <path class="fil3" d="M3752.56 4280.45c-2.59,0 -5.07,1.03 -6.91,2.86 -1.83,1.83 -2.86,4.31 -2.86,6.91l0 9.76c0,2.59 1.03,5.07 2.86,6.91 1.83,1.83 4.31,2.86 6.91,2.86 2.59,0 5.07,-1.03 6.91,-2.86 1.83,-1.83 2.86,-4.31 2.86,-6.91l0 -9.76c0,-2.59 -1.03,-5.07 -2.86,-6.91 -1.83,-1.83 -4.31,-2.86 -6.91,-2.86z"/>
   <path class="fil3" d="M3879.51 4163.27l-9.76 0c-2.59,0 -5.07,1.03 -6.91,2.86 -1.83,1.83 -2.86,4.31 -2.86,6.91 0,2.59 1.03,5.07 2.86,6.91 1.83,1.83 4.31,2.86 6.91,2.86l9.76 0c2.59,0 5.07,-1.03 6.91,-2.86 1.83,-1.83 2.86,-4.31 2.86,-6.91 0,-2.59 -1.03,-5.07 -2.86,-6.91 -1.83,-1.83 -4.31,-2.86 -6.91,-2.86z"/>
   <path class="fil3" d="M3635.37 4163.27l-9.76 0c-2.59,0 -5.07,1.03 -6.91,2.86 -1.83,1.83 -2.86,4.31 -2.86,6.91 0,2.59 1.03,5.07 2.86,6.91 1.83,1.83 4.31,2.86 6.91,2.86l9.76 0c2.59,0 5.07,-1.03 6.91,-2.86 1.83,-1.83 2.86,-4.31 2.86,-6.91 0,-2.59 -1.03,-5.07 -2.86,-6.91 -1.83,-1.83 -4.31,-2.86 -6.91,-2.86z"/>
   <path class="fil3" d="M3835.42 4076.35l-6.9 6.9c-0.93,0.9 -1.68,1.98 -2.19,3.17 -0.51,1.19 -0.78,2.47 -0.8,3.77 -0.01,1.3 0.24,2.58 0.73,3.78 0.49,1.2 1.22,2.29 2.13,3.21 0.92,0.91 2.01,1.64 3.21,2.13 1.2,0.49 2.48,0.74 3.78,0.73 1.3,-0.01 2.58,-0.28 3.77,-0.79 1.19,-0.51 2.27,-1.26 3.17,-2.19l6.91 -6.89c0.91,-0.91 1.63,-1.98 2.12,-3.17 0.49,-1.19 0.74,-2.45 0.74,-3.74 0,-1.28 -0.25,-2.56 -0.74,-3.74 -0.49,-1.19 -1.21,-2.26 -2.12,-3.17 -0.91,-0.91 -1.98,-1.63 -3.17,-2.12 -1.19,-0.49 -2.46,-0.74 -3.74,-0.74 -1.28,0 -2.55,0.25 -3.74,0.74 -1.19,0.49 -2.26,1.21 -3.17,2.12z"/>
   <path class="fil3" d="M3662.79 4248.99l-6.91 6.9c-0.91,0.91 -1.63,1.98 -2.12,3.17 -0.49,1.19 -0.74,2.46 -0.74,3.74 0,1.28 0.25,2.56 0.74,3.74 0.49,1.19 1.21,2.26 2.12,3.17 1.83,1.83 4.31,2.86 6.91,2.86 1.28,0 2.55,-0.25 3.74,-0.74 1.19,-0.49 2.26,-1.21 3.17,-2.12l6.91 -6.91c0.91,-0.91 1.63,-1.98 2.12,-3.17 0.49,-1.19 0.74,-2.46 0.74,-3.74 0,-1.28 -0.25,-2.55 -0.74,-3.74 -0.49,-1.19 -1.21,-2.26 -2.12,-3.17 -0.91,-0.91 -1.98,-1.63 -3.17,-2.12 -1.19,-0.49 -2.46,-0.74 -3.74,-0.74 -2.59,-0 -5.07,1.02 -6.91,2.86z"/>
   <path class="fil3" d="M3842.32 4248.99c-1.84,-1.78 -4.31,-2.76 -6.87,-2.74 -2.56,0.02 -5.01,1.05 -6.82,2.86 -1.81,1.81 -2.83,4.26 -2.86,6.82 -0.02,2.56 0.96,5.03 2.74,6.87l6.91 6.91c1.83,1.83 4.31,2.86 6.91,2.86 2.59,0 5.07,-1.03 6.91,-2.86 1.83,-1.83 2.86,-4.32 2.86,-6.91 0,-2.59 -1.03,-5.07 -2.86,-6.91l-6.92 -6.9z"/>
   <path class="fil3" d="M3662.79 4097.07c1.84,1.78 4.31,2.76 6.87,2.74 2.56,-0.02 5.01,-1.05 6.82,-2.86 1.81,-1.81 2.84,-4.26 2.86,-6.82 0.02,-2.56 -0.96,-5.03 -2.74,-6.87l-6.91 -6.91c-1.83,-1.83 -4.31,-2.86 -6.91,-2.86 -2.59,0 -5.08,1.03 -6.91,2.86 -1.83,1.83 -2.86,4.31 -2.86,6.91 0,2.59 1.03,5.07 2.86,6.91l6.91 6.9z"/>
   <path class="fil3" d="M3837.52 4187.52c-1.26,-1.24 -2.83,-2.12 -4.55,-2.54 -1.72,-0.42 -3.52,-0.36 -5.21,0.17 -6.56,2.02 -13.38,3.04 -20.24,3.01 -18.58,-0.02 -36.4,-7.41 -49.54,-20.55 -13.14,-13.14 -20.53,-30.96 -20.56,-49.54 -0.02,-6.86 1,-13.68 3.03,-20.22 0.53,-1.69 0.59,-3.5 0.17,-5.22 -0.42,-1.72 -1.3,-3.3 -2.54,-4.56 -1.24,-1.26 -2.81,-2.16 -4.53,-2.6 -1.72,-0.44 -3.52,-0.41 -5.22,0.11 -14.82,4.48 -28.23,12.73 -38.92,23.94 -10.69,11.21 -18.28,25 -22.06,40.02 -3.77,15.02 -3.58,30.76 0.54,45.69 4.13,14.93 12.06,28.53 23,39.48 10.95,10.95 24.56,18.88 39.48,23 14.93,4.13 30.67,4.32 45.69,0.55 15.02,-3.77 28.81,-11.37 40.02,-22.06 11.21,-10.69 19.46,-24.09 23.94,-38.92 0.51,-1.7 0.54,-3.51 0.1,-5.23 -0.44,-1.72 -1.35,-3.29 -2.62,-4.53z"/>
  </g>
 </g>
</svg>
